<svg width="16" height="17" viewBox="0 0 16 17" fill="none" xmlns="http://www.w3.org/2000/svg">
<path fill-rule="evenodd" clip-rule="evenodd" d="M7.84467 3.02727C8.13756 2.73438 8.61244 2.73438 8.90533 3.02727L13.4053 7.52727C13.6982 7.82017 13.6982 8.29504 13.4053 8.58793L8.90533 13.0879C8.61244 13.3808 8.13756 13.3808 7.84467 13.0879C7.55178 12.795 7.55178 12.3202 7.84467 12.0273L11.8143 8.0576L7.84467 4.08793C7.55178 3.79504 7.55178 3.32017 7.84467 3.02727Z" fill="white"/>
<path fill-rule="evenodd" clip-rule="evenodd" d="M2.375 8.0576C2.375 7.64339 2.71079 7.3076 3.125 7.3076H12.25C12.6642 7.3076 13 7.64339 13 8.0576C13 8.47182 12.6642 8.8076 12.25 8.8076H3.125C2.71079 8.8076 2.375 8.47182 2.375 8.0576Z" fill="white"/>
</svg>
